<svg width="48" height="48" viewBox="0 0 48 48" fill="none" xmlns="http://www.w3.org/2000/svg">
<path fill-rule="evenodd" clip-rule="evenodd" d="M28.8759 0C28.8759 0 33.9297 5.05043 24.0661 12.6636C17.9463 17.4402 20.2192 20.6326 22.3956 23.6896C23.0311 24.5821 23.6584 25.4631 24.0661 26.3687C19.4198 22.2814 16.0778 18.6751 18.3596 15.3078C19.4727 13.6533 21.2363 12.2831 23.0186 10.8984C26.5889 8.12456 30.234 5.29259 28.8748 0H28.8759ZM26.2672 23.0024C28.6307 25.6476 25.6145 28.0529 25.6145 28.0529C25.6145 28.0529 31.6469 25.0059 28.8748 21.2389C28.7603 21.0755 28.6471 20.9159 28.536 20.7595C26.1973 17.4641 24.8721 15.5968 34.9878 9.85774C34.9878 9.85774 18.2768 13.945 26.2662 23.0014L26.2672 23.0024ZM36.3749 26.6097C39.3094 26.0483 43.5482 30.5363 34.419 35.185L34.4169 35.1861C34.3351 35.3457 34.2534 35.4261 34.2534 35.4261C46.4816 32.2998 41.9159 24.2859 36.1287 26.2894C35.5578 26.4501 35.3137 26.9301 35.3137 26.9301C35.3137 26.9301 35.6427 26.7704 36.3749 26.6097ZM18.523 26.449C18.523 26.449 9.63788 28.5329 15.3434 29.2539C17.7886 29.5743 22.5983 29.4939 27.0812 29.1736C30.749 28.8532 34.4179 28.2115 34.4179 28.2115C34.4179 28.2115 33.1125 28.7729 32.2168 29.3332C23.1683 31.657 5.80556 30.6167 10.7788 28.2115C15.0176 26.208 18.523 26.4376 18.523 26.4376V26.449ZM16.4047 31.8991L16.4022 31.901C8.17373 34.6253 21.0521 37.6703 32.5448 34.3043C31.3211 33.9036 30.5888 33.1022 30.5888 33.1022C24.9746 34.2229 21.7026 34.1436 17.5455 33.7429C14.4314 33.4291 16.3242 31.9604 16.4022 31.901L16.4047 31.9002V31.8991ZM17.6273 37.1082L17.6202 37.1125C10.138 39.1972 22.1964 43.4396 31.7307 39.4341C30.1813 38.8706 29.0404 38.1506 29.0404 38.1506C24.8016 38.952 22.7533 39.0313 18.9327 38.5513C15.8677 38.2416 17.4975 37.1887 17.6202 37.1125L17.6283 37.1102L17.6273 37.1082ZM37.3545 43.0393C40.29 42.1576 38.904 41.0358 38.904 41.0358L38.9019 41.0264C43.9557 43.2699 27.8974 47.7579 8.41527 44.6327C1.32374 43.5214 11.9218 39.5927 13.796 40.8762C13.796 40.8762 13.2272 40.8762 12.1659 41.1162C11.1067 41.2654 7.84536 42.3193 9.55722 43.0393C14.4487 45.1231 31.8931 44.6421 37.3545 43.0393ZM19.4208 47.8476C28.2242 48.409 41.6761 47.5273 42.0008 43.44C42.0008 43.44 41.3492 45.0428 34.7459 46.2449C27.2468 47.6076 17.9541 47.4469 12.4906 46.5652C12.4906 46.5652 13.6315 47.5273 19.4208 47.8487V47.8476Z" fill="#191E30"/>
</svg>
