<svg width="48" height="48" viewBox="0 0 48 48" fill="none" xmlns="http://www.w3.org/2000/svg">
<path fill-rule="evenodd" clip-rule="evenodd" d="M41.7001 17.56C44.4478 17.56 46.6828 19.7246 46.7956 22.4349L46.8001 22.65V40.5C46.8001 43.2379 44.6355 45.4632 41.9159 45.5756L41.7001 45.58H23.1001C20.3524 45.58 18.1174 43.4249 18.0046 40.7151L18.0001 40.5V31.02H25.7501L24.6263 34.26L23.5101 37.5C23.4301 37.7133 23.4449 37.7686 23.6178 37.7783L23.6901 37.78C24.4201 37.78 25.1501 37.77 25.8801 37.78C26.0601 37.78 26.1301 37.71 26.1901 37.55C26.4701 36.64 26.7601 35.75 27.0501 34.84C27.0834 34.7317 27.1307 34.6789 27.2265 34.6643L27.2901 34.66L31.6794 34.6576C31.7473 34.661 31.766 34.6827 31.7992 34.7739L32.7501 37.57C32.8001 37.72 32.8701 37.78 33.0301 37.78L33.7471 37.7756L35.3638 37.7788L35.5501 37.77C35.6334 37.77 35.689 37.7492 35.6878 37.6786L35.6801 37.63L35.6401 37.51L34.5264 34.36L33.4201 31.21L31.6601 26.23C31.7276 25.915 31.7726 25.5944 31.7909 25.2639L31.8001 24.93V17.56H41.7001ZM39.5401 27.82H37.2701C37.0657 27.82 37.035 27.8358 37.0308 27.9938L37.0301 37.53C37.0301 37.7225 37.0607 37.7848 37.2158 37.7974L37.2901 37.8H39.5201C39.7126 37.8 39.7673 37.777 39.778 37.6239L39.7801 37.55V28.06C39.7801 27.85 39.7501 27.82 39.5401 27.82ZM30.0801 29.15L31.0101 32.14H27.8501L28.3701 30.4C29.0201 30.09 29.6001 29.67 30.0801 29.15ZM25.7 2C28.4477 2 30.6827 4.15508 30.7955 6.86494L30.8 7.08V24.93C30.8 26.09 30.41 27.17 29.74 28.03C29.47 28.38 29.15 28.7 28.8 28.97C28.04 29.55 27.11 29.93 26.1 30L25.9037 30.0138L25.7 30.02H7.1C4.35231 30.02 2.11728 27.8554 2.00447 25.1451L2 24.93V7.08C2 4.34205 4.16458 2.11677 6.88417 2.00445L7.1 2H25.7ZM38.4418 23.632L38.2701 23.64C37.4701 23.71 36.7201 24.36 36.9201 25.5C37.0801 26.46 37.8601 26.85 38.7301 26.71C39.4701 26.61 39.9901 25.92 39.9501 25.17L39.9345 24.927C39.9312 24.8856 39.9268 24.8433 39.9201 24.8C39.7701 24.1344 39.2773 23.627 38.4418 23.632ZM22.18 12.11C21.33 12.11 20.62 12.25 20.05 12.54C19.53 12.78 19.09 13.17 18.79 13.66C18.52 14.11 18.37 14.61 18.37 15.13C18.36 15.56 18.46 15.98 18.65 16.37C18.88 16.79 19.19 17.13 19.57 17.4C19.7033 17.4933 19.8367 17.5822 19.973 17.6637L20.18 17.78C20.35 17.88 20.53 17.97 20.72 18.05L20.7663 18.075L20.82 18.1H20.83C20.9233 18.1467 21.0256 18.1889 21.1278 18.2267L21.39 18.32L21.5 18.37L21.7 18.45L21.88 18.53L21.96 18.57L22.04 18.6L22.055 18.6138L22.15 18.66C22.28 18.72 22.39 18.79 22.46 18.85C22.66 19.01 22.75 19.17 22.75 19.34C22.75 19.52 22.6618 19.6927 22.5233 19.795L22.45 19.84L22.42 19.85C22.21 19.96 21.88 20.02 21.43 20.02C21.038 20.02 20.6524 19.9816 20.2783 19.8997L20 19.83C19.84 19.79 19.68 19.75 19.53 19.7C19.38 19.65 19.23 19.6 19.08 19.52C18.9533 19.4733 18.8267 19.4133 18.7 19.3459L18.51 19.24C18.47 19.22 18.43 19.2 18.4 19.23C18.38 19.2433 18.3644 19.2656 18.3563 19.2878L18.35 19.32V21.45C18.34 21.55 18.4 21.63 18.49 21.69C18.794 21.834 19.1236 21.946 19.4583 22.0209L19.71 22.07C20.26 22.19 20.8 22.23 21.35 22.23C22.085 22.23 22.7205 22.1381 23.2497 21.9544L23.47 21.87L23.53 21.84C24.08 21.62 24.55 21.25 24.88 20.76C25.19 20.28 25.37 19.71 25.36 19.14C25.37 18.71 25.27 18.28 25.07 17.89C25.01 17.78 24.94 17.67 24.86 17.56C24.8 17.48 24.73 17.4 24.66 17.33C24.64 17.3 24.62 17.28 24.59 17.26C24.57 17.23 24.56 17.22 24.54 17.21C24.41 17.08 24.28 16.97 24.13 16.88C23.54 16.52 22.92 16.21 22.27 15.99C21.98 15.87 21.69 15.74 21.41 15.59C21.26 15.51 21.11 15.4 21 15.26C20.93 15.17 20.88 15.06 20.88 14.95C20.88 14.84 20.92 14.72 20.98 14.62C21.036 14.532 21.1304 14.4568 21.2376 14.4149L21.32 14.39L21.35 14.37C21.58 14.31 21.83 14.28 22.07 14.29C22.3925 14.29 22.7038 14.3181 23.0164 14.3702L23.33 14.43L23.42 14.45C23.83 14.54 24.22 14.67 24.58 14.86L24.62 14.87L24.6413 14.8787L24.67 14.88C24.69 14.88 24.7 14.88 24.72 14.87C24.74 14.87 24.77 14.87 24.8 14.86C24.82 14.8467 24.8356 14.8244 24.8467 14.7993L24.86 14.76V12.76C24.86 12.71 24.85 12.66 24.83 12.61C24.815 12.5725 24.7831 12.535 24.747 12.5144L24.71 12.5C24.454 12.396 24.1788 12.3112 23.8946 12.261L23.68 12.23C23.18 12.15 22.68 12.11 22.18 12.11ZM12.19 9L11.72 9.00125L11.25 9.01H11.06L10.9312 9.01875L10.81 9.02L10.33 9.03H10.1L9.98 9.04L9.74 9.05L9.27 9.06H9.16L8.93 9.07H8.72L8.62 9.08H8.35C8.286 9.08 8.254 9.1056 8.23864 9.1568L8.23 9.2V22.07C8.23 22.15 8.2556 22.2044 8.31192 22.223L8.36 22.23H10.78C10.836 22.222 10.8856 22.182 10.9032 22.1202L10.91 22.07V18.05H11.31L11.3638 18.0513L11.41 18.06H11.51L11.56 18.07H12.06C13.07 18.07 14 17.96 14.84 17.65C15.64 17.35 16.34 16.82 16.83 16.12C17.32 15.42 17.57 14.54 17.57 13.46C17.57 12.9 17.47 12.36 17.29 11.84C17.09 11.3 16.78 10.81 16.39 10.41C15.91 9.95 15.35 9.6 14.73 9.39C14.03 9.12 13.19 9 12.19 9ZM11.7201 11.34C11.7601 11.34 11.8001 11.34 11.8401 11.35L11.9001 11.3413L11.9601 11.34H12.7801C13.1321 11.34 13.4713 11.3784 13.7926 11.4654L14.0301 11.54L14.1101 11.57C14.4501 11.69 14.7501 11.92 14.9501 12.22C15.0501 12.37 15.1101 12.52 15.1601 12.68C15.1801 12.7333 15.1912 12.7867 15.1994 12.843L15.2238 13.0513L15.2301 13.18V13.23C15.2301 13.74 15.1101 14.13 14.8601 14.42C14.5901 14.7 14.2501 14.92 13.8601 15.02C13.5241 15.124 13.1753 15.1896 12.8188 15.2168L12.5501 15.23H11.8201L11.6538 15.2238L11.3501 15.2V11.36H11.3901L11.4401 11.35H11.4901L11.5501 11.34H11.7201Z" fill="black"/>
</svg>
